<?xml version="1.0" encoding="UTF-8" standalone="no"?> <svg xmlns:dc="http://purl.org/dc/elements/1.1/" xmlns:cc="http://creativecommons.org/ns#" xmlns:rdf="http://www.w3.org/1999/02/22-rdf-syntax-ns#" xmlns:svg="http://www.w3.org/2000/svg" xmlns="http://www.w3.org/2000/svg" xmlns:sodipodi="http://sodipodi.sourceforge.net/DTD/sodipodi-0.dtd" xmlns:inkscape="http://www.inkscape.org/namespaces/inkscape" id="Calque_1" data-name="Calque 1" viewBox="0 0 37.167023 16.779569" version="1.1" sodipodi:docname="logo-marron-avec-baseline.svg" width="47.503414" height="18.643888" inkscape:version="0.92.4 (5da689c313, 2019-01-14)" inkscape:export-filename="O:\STORAGE\Google Drive Antonin\Hoopi_\4 - Comm' Comm'_\OPOPOP_logos\logos\PNG\logo.png" inkscape:export-xdpi="2425.3401" inkscape:export-ydpi="2425.3401"><metadata id="metadata25"></metadata><defs id="defs4"><style id="style2">.cls-1{fill:white;}</style></defs><title id="title6">logo</title><path style="fill:white;stroke-width:0.02064904;fill-opacity:1" d="m 5.5906364,16.771448 c -1.4299,-0.0687 -2.7572,-0.505756 -3.9439,-1.29851 -1.27390001,-0.850918 -2.21770001,-2.012424 -2.8401,-3.494954 -0.012,-0.02619 -0.027,-0.04361 -0.034,-0.03869 -0.01,0.005 -0.1262,0.07655 -0.2618,0.159186 -0.3588,0.218816 -0.4959,0.24826 -0.5913,0.126933 -0.034,-0.04166 -0.041,-0.07283 -0.033,-0.127471 0.019,-0.120711 0.5901,-1.740194 0.6375,-1.810052 0.092,-0.135235 0.2265,-0.164845 0.38,-0.08362 0.11409999,0.06027 1.33469999,1.051614 1.38939999,1.128298 0.1489,0.209009 0.028,0.313062 -0.4386,0.379938 -0.1111,0.01591 -0.2072,0.0341 -0.2136,0.04045 -0.016,0.01632 0.2334,0.52952 0.3756,0.771672 0.5478,0.933709 1.29580001,1.721334 2.18850001,2.304686 0.8634,0.564329 1.8409,0.917595 2.9337,1.060318 0.3337,0.0436 1.1545,0.04945 1.4945,0.01065 1.5193,-0.173262 2.9199,-0.806801 3.9697996,-1.795632 0.243,-0.228944 0.357,-0.277755 0.5366,-0.229938 0.2838,0.07549 0.4093,0.415167 0.2395,0.647601 -0.1937,0.264963 -1.0068,0.892144 -1.5958996,1.231084 -1.2495,0.718733 -2.7647,1.086658 -4.1927,1.018042 z M 27.767636,15.409266 c -0.08,-0.01671 -0.2143,-0.06474 -0.2993,-0.106723 -0.122,-0.06015 -0.1637,-0.09274 -0.1961,-0.153719 -0.037,-0.07121 -0.038,-0.08192 -0.01,-0.134216 0.043,-0.0758 0.1163,-0.08176 0.2403,-0.0193 0.2393,0.120536 0.3988,0.163346 0.6159,0.165198 0.1726,0.0014 0.224,-0.006 0.3126,-0.0452 0.2187,-0.09688 0.2995,-0.249615 0.313,-0.591629 0.012,-0.31055 0.01,-0.327025 -0.064,-0.220035 -0.073,0.110789 -0.24,0.22055 -0.3964,0.260965 -0.5119,0.132331 -1.0051,-0.165403 -1.1276,-0.680595 -0.033,-0.141039 -0.033,-0.471031 -3e-4,-0.609136 0.094,-0.389697 0.3672,-0.649194 0.744,-0.707523 0.2982,-0.04616 0.5601,0.04209 0.7468,0.251669 l 0.1004,0.113064 v -0.133744 c 0,-0.178185 0.033,-0.225531 0.1561,-0.225531 0.064,0 0.1041,0.0124 0.133,0.04131 0.04,0.04019 0.041,0.06883 0.041,1.062408 0,1.047449 -0.01,1.144265 -0.084,1.327301 -0.087,0.202666 -0.3165,0.369292 -0.5767,0.418638 -0.1538,0.02917 -0.48,0.02255 -0.65,-0.01319 z m 0.6188,-1.154316 c 0.2602,-0.124389 0.3989,-0.456643 0.3443,-0.824184 -0.058,-0.39024 -0.3195,-0.616056 -0.6749,-0.582877 -0.1833,0.01712 -0.2843,0.06503 -0.3964,0.18796 -0.1406,0.154013 -0.1813,0.278508 -0.1791,0.548762 0,0.170004 0.012,0.241333 0.046,0.330385 0.075,0.191854 0.1998,0.309671 0.3962,0.374217 0.09,0.0296 0.3743,0.0086 0.464,-0.03426 z m -10.5876,0.422684 c -0.6515,-0.08943 -1.0596,-0.55579 -1.1291,-1.290566 -0.054,-0.5661 0.089,-1.052894 0.3999,-1.363064 0.273,-0.272529 0.5646,-0.372698 1.0316,-0.354278 0.2974,0.01173 0.4469,0.04935 0.6532,0.164333 0.2228,0.124306 0.3097,0.217113 0.3097,0.331172 0,0.05847 -0.07,0.13914 -0.1205,0.13914 -0.02,0 -0.1242,-0.05827 -0.2315,-0.129488 -0.2356,-0.156255 -0.3634,-0.201634 -0.6082,-0.215842 -0.5302,-0.03077 -0.8913,0.230975 -1.0317,0.747986 -0.018,0.06814 -0.04,0.2354 -0.046,0.371684 -0.03,0.644527 0.1846,1.079914 0.621,1.257079 0.088,0.03589 0.1496,0.04268 0.3839,0.04258 0.3292,-3.1e-4 0.4211,-0.02797 0.6848,-0.207591 0.2022,-0.137628 0.2462,-0.150426 0.304,-0.08836 0.074,0.07981 0.059,0.176116 -0.044,0.274897 -0.2514,0.240803 -0.7562,0.378132 -1.1774,0.320307 z m 2.2515,-0.03873 c -0.3149,-0.100652 -0.5319,-0.348537 -0.6159,-0.703268 -0.038,-0.158829 -0.034,-0.498283 0.01,-0.655289 0.1364,-0.517829 0.5855,-0.801836 1.121,-0.708755 0.5154,0.08959 0.8275,0.541244 0.7856,1.136906 -0.034,0.486387 -0.2598,0.809298 -0.6495,0.929698 -0.1746,0.05393 -0.4815,0.05426 -0.6489,7.26e-4 z m 0.6197,-0.302477 c 0.1264,-0.0618 0.2071,-0.159886 0.2765,-0.335852 0.039,-0.09852 0.046,-0.156509 0.046,-0.374674 0,-0.218163 -0.01,-0.276155 -0.046,-0.374672 -0.067,-0.169031 -0.1464,-0.267428 -0.2734,-0.33772 -0.1013,-0.05594 -0.1299,-0.06195 -0.2979,-0.06195 -0.1677,0 -0.1966,0.006 -0.2978,0.06195 -0.1902,0.105319 -0.3025,0.315462 -0.3252,0.608556 -0.034,0.450429 0.1449,0.787318 0.4624,0.867222 0.1267,0.03187 0.3307,0.0081 0.4554,-0.05286 z m 1.2408,0.303115 -0.049,-0.03946 -0.01,-0.958485 c -0.01,-0.946934 -0.01,-0.959149 0.037,-1.013642 0.034,-0.0444 0.061,-0.05516 0.1316,-0.05516 0.1199,0 0.1618,0.04927 0.173,0.20341 l 0.01,0.119267 0.1168,-0.116684 c 0.081,-0.08101 0.1519,-0.129921 0.2323,-0.159991 0.3463,-0.129569 0.7637,-0.04542 0.9229,0.186055 0.1321,0.191779 0.1362,0.221458 0.144,1.032241 l 0.01,0.73774 -0.052,0.05209 c -0.064,0.06381 -0.1725,0.06946 -0.2427,0.01264 l -0.049,-0.03945 -0.011,-0.72973 c -0.01,-0.471967 -0.018,-0.748378 -0.034,-0.782519 -0.05,-0.111921 -0.1313,-0.1838 -0.2494,-0.218129 -0.2384,-0.06928 -0.5216,0.01436 -0.6592,0.194607 -0.1197,0.157045 -0.1304,0.231362 -0.1304,0.906958 v 0.606335 l -0.051,0.05068 c -0.063,0.06242 -0.1718,0.0675 -0.2413,0.01122 z m 2.6815,0.0082 c -0.252,-0.06347 -0.4691,-0.214514 -0.4691,-0.326278 0,-0.06452 0.057,-0.138096 0.1055,-0.138096 0.022,0 0.1399,0.04879 0.2604,0.108407 l 0.2191,0.108407 h 0.2185 c 0.181,0 0.2352,-0.0077 0.3161,-0.04505 0.1132,-0.05232 0.1811,-0.147849 0.1808,-0.254355 0,-0.171383 -0.094,-0.232605 -0.522,-0.340121 -0.5362,-0.134886 -0.6943,-0.26906 -0.6955,-0.590195 0,-0.318674 0.2287,-0.539377 0.6253,-0.601054 0.2893,-0.04496 0.6247,0.03911 0.7908,0.198179 0.073,0.07067 0.091,0.100905 0.091,0.15978 0,0.07249 -0.05,0.140957 -0.1013,0.140957 -0.014,0 -0.1156,-0.04878 -0.2257,-0.108407 l -0.1998,-0.108408 h -0.2065 c -0.1711,0 -0.219,0.0073 -0.2788,0.04242 -0.2124,0.124822 -0.2222,0.390186 -0.018,0.495632 0.033,0.01722 0.2006,0.0681 0.3719,0.113067 0.5463,0.1434 0.6996,0.27121 0.6996,0.583352 0,0.165606 -0.04,0.262148 -0.1548,0.378147 -0.156,0.156924 -0.2821,0.199076 -0.6196,0.207214 -0.1859,0.0045 -0.3051,-0.0027 -0.3877,-0.02359 z m 1.7373,-0.0082 -0.049,-0.03946 -0.01,-0.958485 c -0.01,-0.946934 -0.01,-0.959149 0.037,-1.013642 0.034,-0.04418 0.061,-0.05509 0.1297,-0.05485 0.1839,6.69e-4 0.1791,-0.02762 0.1791,1.06269 v 0.941829 l -0.051,0.05068 c -0.063,0.06242 -0.1718,0.0675 -0.2414,0.01122 z m 3.4485,0 -0.049,-0.03946 -0.01,-0.958485 c -0.01,-0.946934 -0.01,-0.959149 0.037,-1.013642 0.036,-0.0444 0.061,-0.05516 0.1317,-0.05516 0.1199,0 0.1618,0.04927 0.173,0.20341 l 0.01,0.119267 0.1166,-0.116684 c 0.081,-0.08101 0.1522,-0.129921 0.2326,-0.159991 0.3462,-0.129569 0.7636,-0.04542 0.9229,0.186055 0.1319,0.191779 0.1361,0.221458 0.1439,1.032241 l 0.01,0.73774 -0.052,0.05209 c -0.064,0.06381 -0.1725,0.06946 -0.2427,0.01264 l -0.049,-0.03945 -0.012,-0.72973 c -0.01,-0.471967 -0.019,-0.748378 -0.034,-0.782519 -0.05,-0.111921 -0.1314,-0.1838 -0.2495,-0.218129 -0.2384,-0.06928 -0.5216,0.01436 -0.659,0.194607 -0.1198,0.157045 -0.1306,0.231362 -0.1306,0.906958 v 0.606335 l -0.051,0.05068 c -0.063,0.06242 -0.1719,0.0675 -0.2414,0.01122 z m 2.9165,0.0068 c -0.4432,-0.119186 -0.6899,-0.479823 -0.6908,-1.010097 0,-0.241804 0.028,-0.383428 0.1176,-0.56668 0.2958,-0.611171 1.2074,-0.698503 1.5599,-0.149422 0.086,0.13366 0.1233,0.24837 0.1451,0.442758 0.019,0.168712 0.01,0.277569 -0.044,0.307712 -0.014,0.0091 -0.3455,0.01675 -0.7361,0.01694 l -0.7098,3.1e-4 0.014,0.104991 c 0.034,0.264428 0.1707,0.46956 0.3686,0.557986 0.089,0.03988 0.1437,0.04829 0.3145,0.04878 l 0.2065,5.57e-4 0.2247,-0.108385 c 0.1234,-0.05961 0.2417,-0.108386 0.2628,-0.108386 0.021,0 0.053,0.02286 0.072,0.05078 0.1343,0.205058 -0.2937,0.446663 -0.7856,0.443433 -0.1138,-7.8e-4 -0.2571,-0.01484 -0.3183,-0.03132 z m 0.8363,-1.287131 c -0.042,-0.321765 -0.2179,-0.506799 -0.5046,-0.5328 -0.3306,-0.02997 -0.596,0.187144 -0.6622,0.5416 l -0.017,0.09272 h 0.5989 0.5988 z m 1.1381,1.288606 c -0.252,-0.06347 -0.4691,-0.214514 -0.4691,-0.326279 0,-0.06452 0.057,-0.138095 0.1054,-0.138095 0.023,0 0.1399,0.04879 0.2604,0.108407 l 0.2192,0.108408 h 0.2185 c 0.1811,0 0.2353,-0.0077 0.3161,-0.04505 0.1132,-0.05233 0.1812,-0.147849 0.1808,-0.254355 0,-0.171383 -0.094,-0.232604 -0.5219,-0.340119 -0.5364,-0.134887 -0.6944,-0.269062 -0.6955,-0.590196 0,-0.318675 0.2285,-0.539376 0.6252,-0.601055 0.2892,-0.04496 0.6247,0.03911 0.7907,0.198179 0.073,0.07067 0.091,0.100906 0.091,0.15978 0,0.07249 -0.05,0.140957 -0.1014,0.140957 -0.013,0 -0.1154,-0.04879 -0.2255,-0.108407 l -0.1999,-0.108408 h -0.2066 c -0.1711,0 -0.2188,0.0073 -0.2786,0.04242 -0.2125,0.124824 -0.2224,0.390187 -0.019,0.495633 0.034,0.01722 0.2006,0.0681 0.372,0.113066 0.5463,0.143402 0.6995,0.271211 0.6995,0.583354 0,0.165605 -0.039,0.262147 -0.1549,0.378146 -0.1558,0.156925 -0.2818,0.199077 -0.6194,0.207214 -0.1861,0.0045 -0.3052,-0.0027 -0.3878,-0.02359 z m -22.33,-1.557645 c -0.5448,-0.0862 -0.9189,-0.373532 -1.0971,-0.84275 -0.047,-0.122631 -0.053,-0.171172 -0.055,-0.407643 0,-0.267122 0,-0.270722 0.1277,-0.733968 0.071,-0.256044 0.1289,-0.474986 0.1289,-0.486539 0,-0.01155 -0.165,-0.06524 -0.3665,-0.11928 -0.3879,-0.103965 -0.4726,-0.146037 -0.5341,-0.264959 -0.044,-0.08504 -0.031,-0.2659727 0.026,-0.3422825 0.073,-0.099028 0.1678,-0.1488508 0.2821,-0.1488508 0.1368,0 2.9895,0.7706873 3.084,0.8332353 0.088,0.0584 0.1545,0.180911 0.1554,0.28797 0,0.14649 -0.3412,1.360158 -0.4407,1.561969 -0.1468,0.29755 -0.4286,0.537722 -0.7373,0.628411 -0.1351,0.03967 -0.4309,0.05752 -0.5751,0.03469 z m 0.4196,-0.72297 c 0.2587,-0.1144 0.3072,-0.193937 0.4622,-0.757918 0.068,-0.246883 0.1236,-0.459241 0.1236,-0.471905 0,-0.01272 -0.2705,-0.09559 -0.604,-0.185111 -0.3323,-0.08914 -0.6139,-0.165519 -0.6259,-0.169719 -0.012,-0.0045 -0.075,0.190676 -0.1521,0.47278 -0.1056,0.390066 -0.1279,0.498931 -0.1184,0.578872 0.033,0.26967 0.2403,0.506677 0.5037,0.572815 0.1084,0.02722 0.3017,0.0085 0.4109,-0.03982 z m 20.1559,-0.02317 c -0.073,-0.04257 -0.038,-0.113801 0.2344,-0.47144 0.3076,-0.404316 0.3602,-0.446589 0.4825,-0.38826 0.076,0.03646 0.1069,0.102885 0.086,0.187099 -0.01,0.02665 -0.1308,0.159136 -0.2758,0.29441 -0.4616,0.430517 -0.4506,0.422659 -0.5269,0.378191 z m -6.6248,-0.285847 c -0.049,-0.04859 -0.06,-0.07823 -0.06,-0.152048 0,-0.133943 0.072,-0.200572 0.215,-0.200572 0.1224,0 0.1811,0.03333 0.2187,0.124141 0.037,0.09162 -0.01,0.216066 -0.082,0.257746 -0.1018,0.05257 -0.2212,0.04056 -0.291,-0.02927 z m -9.4633,-2.4809693 -0.055,-0.0428 V 8.122943 6.7114812 l 0.057,-0.044598 c 0.057,-0.044114 0.065,-0.04451 0.7587,-0.036242 0.6413,0.00764 0.7134,0.012056 0.8306,0.051031 0.3683,0.1224881 0.5345,0.3395852 0.5579,0.7288825 0.026,0.4239009 -0.1655,0.7195153 -0.5463,0.8454419 -0.071,0.02336 -0.149,0.042468 -0.1744,0.042468 -0.036,0 -0.027,0.011844 0.047,0.058477 0.1269,0.080566 0.162,0.1264253 0.4818,0.6299957 0.1744,0.2746766 0.2806,0.4621257 0.2806,0.4953721 0,0.1252666 -0.1948,0.1880969 -0.2828,0.091232 -0.023,-0.025556 -0.1773,-0.2601868 -0.3424,-0.5214089 -0.1651,-0.2612213 -0.3341,-0.5098893 -0.3756,-0.5525925 -0.1288,-0.1326039 -0.1814,-0.1457899 -0.5891,-0.1477313 l -0.3614,-0.00172 -0.01,0.5924067 -0.01,0.592409 -0.055,0.042549 c -0.069,0.054298 -0.152,0.0542 -0.2213,-3.095e-4 z m 1.5096,-1.5857837 c 0.1265,-0.057136 0.2367,-0.1706298 0.2758,-0.2839187 0.041,-0.1168512 0.037,-0.350283 -0.01,-0.4659882 -0.048,-0.1226801 -0.1633,-0.2278629 -0.3057,-0.2774828 -0.097,-0.034026 -0.1765,-0.038729 -0.6481,-0.038729 h -0.5369 l -0.01,0.5639015 -0.01,0.5639041 0.5631,-0.00638 c 0.541,-0.00613 0.5672,-0.00828 0.6712,-0.055305 z m 1.8453,1.5959033 c -0.4432,-0.1191864 -0.6898,-0.4798272 -0.6909,-1.0101005 0,-0.2418008 0.029,-0.3834242 0.1177,-0.5666797 0.2958,-0.6111672 1.2075,-0.6985 1.5598,-0.1494196 0.086,0.1336606 0.1234,0.2483678 0.1451,0.4427579 0.019,0.1687128 0.01,0.2775698 -0.044,0.3077102 -0.014,0.00914 -0.3456,0.016764 -0.736,0.016939 l -0.71,3.096e-4 0.014,0.1049914 c 0.034,0.2644268 0.1706,0.4695585 0.3688,0.5579852 0.089,0.039874 0.1434,0.048285 0.3143,0.048777 l 0.2066,5.575e-4 0.2245,-0.1083849 c 0.1236,-0.059614 0.2419,-0.1083858 0.2628,-0.1083858 0.021,0 0.053,0.022854 0.072,0.050781 0.1344,0.2050611 -0.2936,0.4466668 -0.7856,0.4434365 -0.1138,-7.812e-4 -0.2569,-0.014836 -0.3183,-0.031319 z m 0.8364,-1.2871308 c -0.043,-0.321766 -0.218,-0.5067984 -0.5048,-0.5328008 -0.3305,-0.029966 -0.5958,0.1871451 -0.6621,0.5416005 l -0.017,0.092716 h 0.5987 0.5988 z m 1.2205,1.2853778 c -0.1987,-0.068373 -0.3539,-0.259589 -0.4046,-0.4982991 -0.014,-0.068562 -0.023,-0.3673716 -0.023,-0.8001497 0,-0.6631934 0,-0.6923737 0.042,-0.7320257 0.028,-0.02862 0.069,-0.041296 0.1309,-0.041296 0.1581,0 0.1539,-0.02052 0.1629,0.774339 0.01,0.741216 0.018,0.8184449 0.1145,0.9252173 0.1227,0.1355831 0.409,0.1670068 0.613,0.067246 0.1205,-0.058934 0.1924,-0.1315161 0.265,-0.2673418 0.044,-0.08121 0.046,-0.1146017 0.056,-0.7488101 0.01,-0.615575 0.012,-0.6669658 0.05,-0.7072316 0.056,-0.061331 0.2014,-0.060333 0.2592,0.00172 0.042,0.044136 0.043,0.067639 0.043,1.0024188 v 0.9572367 l -0.051,0.050683 c -0.064,0.063873 -0.1709,0.067792 -0.2345,0.00859 -0.037,-0.035032 -0.046,-0.064812 -0.046,-0.1773698 V 9.2652326 l -0.08,0.1005709 c -0.051,0.064598 -0.1268,0.1260058 -0.2117,0.171693 -0.1248,0.067165 -0.1448,0.071425 -0.3593,0.076606 -0.1688,0.00412 -0.2525,-0.00322 -0.3261,-0.028563 z m 2.5674,0.00233 c -0.164,-0.035561 -0.3013,-0.1180957 -0.3779,-0.2269673 -0.1057,-0.1502539 -0.1182,-0.2485111 -0.1185,-0.923047 l -2e-4,-0.6143082 -0.1602,-3.09e-4 c -0.2024,-4.129e-4 -0.2611,-0.027699 -0.2694,-0.1251209 -0.01,-0.1125397 0.036,-0.1400408 0.2443,-0.1472672 l 0.1748,-0.00607 0.011,-0.2832714 c 0.01,-0.2269155 0.017,-0.2900802 0.045,-0.3174947 0.049,-0.048298 0.1887,-0.048375 0.242,0 0.039,0.034639 0.043,0.066175 0.049,0.3196627 l 0.01,0.2812274 0.2675,0.00582 c 0.212,0.00462 0.2753,0.012764 0.3046,0.039337 0.045,0.040208 0.049,0.1279114 0.01,0.1832086 -0.026,0.035628 -0.061,0.040833 -0.3097,0.046847 l -0.2805,0.00676 v 0.5549065 c 0,0.3359243 0.01,0.5980905 0.023,0.6643336 0.042,0.195456 0.2071,0.3055884 0.4583,0.3055884 0.099,0 0.1584,0.050361 0.1584,0.1342177 0,0.098356 -0.059,0.134648 -0.2162,0.1325792 -0.069,-8.93e-4 -0.1844,-0.01463 -0.2576,-0.030505 z m 0.8633,-0.00734 -0.049,-0.039462 -0.01,-0.9584857 c -0.01,-0.946933 -0.01,-0.9591488 0.038,-1.0136375 0.034,-0.044186 0.061,-0.055093 0.1297,-0.054842 0.184,6.695e-4 0.1793,-0.027622 0.1793,1.0626902 v 0.9418248 l -0.051,0.050683 c -0.063,0.062414 -0.1717,0.067497 -0.2412,0.011221 z m 0.9705,-2.8e-6 -0.049,-0.039471 -0.01,-1.3903229 c -0.01,-0.9672667 0,-1.4068338 0.017,-1.4445845 0.044,-0.1056107 0.1959,-0.1330381 0.2788,-0.050233 l 0.051,0.050685 v 1.4060105 1.4060136 l -0.051,0.050683 c -0.063,0.062414 -0.1719,0.067497 -0.2413,0.011221 z m 0.9912,2.8e-6 -0.049,-0.039462 -0.01,-0.9584857 c -0.01,-0.946933 -0.01,-0.9591488 0.038,-1.0136375 0.034,-0.044186 0.061,-0.055093 0.1295,-0.054842 0.184,6.695e-4 0.1793,-0.027622 0.1793,1.0626902 v 0.9418248 l -0.051,0.050683 c -0.063,0.062414 -0.1718,0.067497 -0.2414,0.011221 z m 1.2567,0.00823 c -0.252,-0.06347 -0.4691,-0.2145104 -0.4691,-0.3262786 0,-0.064517 0.057,-0.1380922 0.1055,-0.1380922 0.023,0 0.1398,0.048786 0.2604,0.1084073 l 0.2191,0.1084081 h 0.2185 c 0.181,0 0.2352,-0.00769 0.316,-0.045054 0.1133,-0.052321 0.1812,-0.1478495 0.1809,-0.2543553 0,-0.1713793 -0.094,-0.2326047 -0.522,-0.3401173 -0.5362,-0.1348863 -0.6943,-0.2690607 -0.6954,-0.590198 0,-0.3186713 0.2285,-0.5393735 0.6252,-0.6010513 0.2893,-0.044972 0.6247,0.039103 0.7908,0.1981753 0.073,0.070675 0.091,0.1009085 0.091,0.1597798 0,0.072491 -0.05,0.1409607 -0.1013,0.1409607 -0.014,0 -0.1156,-0.048782 -0.2256,-0.1084073 l -0.2,-0.1084074 h -0.2064 c -0.1711,0 -0.219,0.00727 -0.2787,0.042418 -0.2125,0.1248229 -0.2224,0.3901832 -0.019,0.4956293 0.033,0.017228 0.2007,0.068108 0.372,0.1130664 0.5462,0.1434009 0.6995,0.2712137 0.6995,0.583352 0,0.1656072 -0.04,0.2621491 -0.1548,0.3781472 -0.1559,0.1569248 -0.282,0.1990765 -0.6195,0.2072131 -0.186,0.00447 -0.3051,-0.00278 -0.3877,-0.023588 z m 2.0809,0.00331 c -0.2865,-0.093379 -0.4645,-0.3144535 -0.4645,-0.5770626 0,-0.4254068 0.2419,-0.5661098 1.0399,-0.6047526 l 0.3071,-0.014869 -0.01,-0.1680935 c -0.016,-0.3020265 -0.1247,-0.4230741 -0.3962,-0.4404995 -0.1839,-0.0118 -0.3537,0.028737 -0.5878,0.1403129 -0.1978,0.094354 -0.2155,0.096997 -0.2716,0.040866 -0.232,-0.2320849 0.532,-0.5569416 1.0504,-0.4465834 0.2757,0.058711 0.4385,0.2116269 0.5076,0.476937 0.026,0.099351 0.031,0.2576908 0.031,0.8273224 v 0.7044533 l -0.049,0.044893 c -0.059,0.055792 -0.1584,0.058226 -0.2234,0.00554 -0.039,-0.031256 -0.051,-0.065456 -0.059,-0.1655411 l -0.01,-0.1261436 -0.073,0.097818 c -0.049,0.066208 -0.1118,0.1180312 -0.1947,0.1603779 -0.1077,0.05514 -0.1457,0.063121 -0.3201,0.067265 -0.1194,0.00286 -0.2304,-0.00599 -0.2803,-0.022209 z m 0.5097,-0.2695234 c 0.211,-0.075416 0.3466,-0.2769344 0.3634,-0.540532 l 0.01,-0.1532724 h -0.2078 c -0.5858,0 -0.8011,0.1029746 -0.7837,0.3748266 0.014,0.2158955 0.1725,0.3474269 0.4181,0.3465295 0.068,-3.106e-4 0.158,-0.012644 0.1998,-0.027552 z m 1.3769,0.2578825 -0.049,-0.03947 -0.01,-1.390323 c -0.01,-0.9672668 0,-1.406834 0.017,-1.4445848 0.044,-0.1056106 0.1959,-0.1330379 0.2787,-0.050233 l 0.051,0.050685 v 0.5842726 c 0,0.5502793 0.01,0.5812712 0.034,0.5326519 0.2625,-0.3976567 0.9101,-0.4391617 1.268,-0.081268 0.1898,0.1897868 0.285,0.4621749 0.285,0.8143071 0,0.4723466 -0.1813,0.8229395 -0.5093,0.9844198 -0.1141,0.056213 -0.164,0.067917 -0.3212,0.075425 -0.1026,0.00493 -0.2345,-0.00188 -0.2934,-0.01514 -0.1505,-0.033628 -0.3253,-0.1486387 -0.4017,-0.2642197 l -0.064,-0.09582 v 0.1386941 c 0,0.1197287 -0.01,0.1456312 -0.051,0.1893819 -0.063,0.062414 -0.1718,0.067497 -0.2413,0.011221 z m 1.1956,-0.3030981 c 0.1277,-0.06237 0.2329,-0.188854 0.2877,-0.345426 0.028,-0.082774 0.038,-0.1701098 0.038,-0.3857602 0,-0.263845 -0.01,-0.2856811 -0.06,-0.4080611 -0.065,-0.1396441 -0.1776,-0.2571702 -0.2988,-0.3103764 -0.1208,-0.053016 -0.4016,-0.045095 -0.5249,0.014796 -0.1227,0.059683 -0.2276,0.1801362 -0.2877,0.3303207 -0.041,0.099608 -0.047,0.1529566 -0.046,0.3939714 0,0.3058669 0.028,0.4155107 0.1425,0.5650915 0.1598,0.2096103 0.4879,0.2732737 0.7494,0.1454442 z m 1.2616,0.3030981 -0.049,-0.03947 -0.01,-1.390323 c -0.01,-0.9672668 0,-1.406834 0.017,-1.4445848 0.044,-0.1056106 0.1959,-0.1330379 0.2787,-0.050233 l 0.051,0.050685 v 1.4060105 1.406013 l -0.051,0.050683 c -0.063,0.062414 -0.1717,0.067497 -0.2412,0.011221 z m 1.4918,0.0068 c -0.4433,-0.1191854 -0.6899,-0.4798271 -0.6909,-1.0101003 0,-0.2418008 0.029,-0.3834243 0.1177,-0.5666798 0.2959,-0.6111671 1.2075,-0.6984999 1.5598,-0.1494196 0.086,0.1336606 0.1234,0.2483678 0.1451,0.4427578 0.018,0.1687128 0.01,0.2775699 -0.044,0.3077103 -0.014,0.00914 -0.3457,0.016764 -0.7361,0.016939 l -0.7099,3.096e-4 0.013,0.1049913 c 0.034,0.2644267 0.1706,0.4695585 0.3687,0.5579852 0.089,0.039874 0.1436,0.048285 0.3144,0.048777 l 0.2065,5.584e-4 0.2246,-0.1083858 c 0.1236,-0.059614 0.2419,-0.1083858 0.2629,-0.1083858 0.021,0 0.053,0.022854 0.072,0.050781 0.1344,0.205061 -0.2936,0.4466667 -0.7855,0.4434363 -0.1138,-7.81e-4 -0.2571,-0.014836 -0.3183,-0.031319 z m 0.8363,-1.2871306 c -0.043,-0.321766 -0.218,-0.5068018 -0.5046,-0.5328011 -0.3306,-0.029971 -0.596,0.1871425 -0.6622,0.5415973 l -0.017,0.092716 h 0.5989 0.5988 z m 1.1587,1.2886017 c -0.252,-0.06347 -0.4691,-0.2145095 -0.4691,-0.3262777 0,-0.064517 0.057,-0.1380931 0.1055,-0.1380931 0.023,0 0.1399,0.048786 0.2604,0.1084072 l 0.2192,0.1084082 h 0.2184 c 0.181,0 0.2353,-0.00769 0.3161,-0.045054 0.1133,-0.052321 0.1812,-0.1478494 0.1809,-0.2543552 0,-0.1713799 -0.094,-0.2326053 -0.522,-0.3401178 -0.5362,-0.1348863 -0.6944,-0.2690607 -0.6955,-0.590198 0,-0.3186713 0.2285,-0.5393735 0.6252,-0.6010514 0.2892,-0.044972 0.6247,0.039103 0.7908,0.1981755 0.073,0.070675 0.091,0.1009085 0.091,0.1597798 0,0.072491 -0.05,0.1409606 -0.1014,0.1409606 -0.014,0 -0.1156,-0.048782 -0.2255,-0.1084074 l -0.2,-0.1084072 h -0.2065 c -0.1711,0 -0.2189,0.00727 -0.2787,0.042418 -0.2125,0.124823 -0.2223,0.3901832 -0.019,0.4956293 0.034,0.017228 0.2007,0.068108 0.3719,0.1130663 0.5463,0.1434011 0.6996,0.2712138 0.6996,0.5833526 0,0.1656064 -0.04,0.2621474 -0.1548,0.3781464 -0.156,0.1569246 -0.282,0.1990763 -0.6196,0.2072139 -0.1859,0.00447 -0.305,-0.00278 -0.3877,-0.023588 z M -1.1202636,9.329881 c -0.6098,-0.095509 -1.0822,-0.378719 -1.3755,-0.8244724 -0.1086,-0.1652192 -0.204,-0.3901581 -0.2606,-0.6150791 -0.049,-0.1984415 -0.049,-0.7694144 0,-0.9488286 0.1333,-0.4768752 0.4465,-0.9243812 0.8211,-1.1734179 0.2895,-0.192482 0.5536,-0.2756241 0.928,-0.2921673 0.64679999,-0.028585 1.24929999,0.2206281 1.62349999,0.6715467 0.126,0.1516964 0.2942,0.4802917 0.3456,0.6745427 0.09,0.3420038 0.084,0.7162199 -0.018,1.1227479 -0.1672,0.659195 -0.6753,1.1855532 -1.2995,1.3462871 -0.1906,0.049063 -0.5743,0.06857 -0.76409999,0.038845 z m 0.55829999,-0.7117189 c 0.2303,-0.058537 0.4023,-0.1596905 0.569,-0.3348091 0.2517,-0.2640743 0.3582,-0.5351429 0.3554,-0.9038236 -0.01,-0.6964904 -0.5357,-1.2097225 -1.2557,-1.2156848 -0.35719999,-0.00295 -0.59369999,0.094042 -0.84749999,0.3475392 -0.2585,0.2580099 -0.3804,0.5495914 -0.3804,0.9094423 0,0.5841023 0.3665,1.0442548 0.9448,1.186467 0.19549999,0.048058 0.45029999,0.052566 0.61439999,0.010869 z M 12.002236,8.8429614 c -0.3104,-0.060154 -0.5975,-0.1908619 -0.8366,-0.3808166 -0.444,-0.352953 -0.7328,-0.9907732 -0.7328,-1.6190282 0,-0.900352 0.5386,-1.5697805 1.4557,-1.8095186 0.2653,-0.069312 0.75,-0.07049 0.9868,-0.00237 0.376,0.1081443 0.7169,0.3388818 0.9528,0.6447857 0.4024,0.5219945 0.5327,1.1381425 0.3737,1.7655734 -0.1723,0.678891 -0.6445,1.1465424 -1.3571,1.3438747 -0.1559,0.043182 -0.2486,0.054568 -0.4915,0.060377 -0.1647,0.00396 -0.3228,0.00263 -0.351,-0.00285 z m 0.6504,-0.7225017 c 0.3467,-0.087565 0.6659,-0.3373855 0.8048,-0.6296922 0.1479,-0.3112965 0.1689,-0.6275337 0.064,-0.9594679 -0.1164,-0.3684336 -0.3878,-0.6573176 -0.7448,-0.7929822 -0.1737,-0.065933 -0.4931,-0.080751 -0.6973,-0.03233 -0.4901,0.1162687 -0.8369,0.4464031 -0.9543,0.9087054 -0.1225,0.4813325 0.1073,1.0704092 0.5267,1.3504689 0.2939,0.1962517 0.6314,0.2486183 1.0009,0.1553015 z m 7.7486,-0.8355052 c -0.073,-0.042579 -0.038,-0.1138 0.2344,-0.4714394 0.3077,-0.4043165 0.3603,-0.4465889 0.4825,-0.3882596 0.076,0.036464 0.1069,0.1028848 0.086,0.1870956 -0.01,0.026656 -0.1309,0.1591392 -0.2759,0.2944099 -0.4615,0.4305204 -0.4506,0.4226618 -0.5269,0.3781935 z m 5.2277,-0.2858457 c -0.049,-0.048588 -0.06,-0.078239 -0.06,-0.1520523 0,-0.1339391 0.072,-0.2005693 0.2151,-0.2005693 0.1223,0 0.1811,0.033334 0.2186,0.1241417 0.037,0.091617 -0.01,0.2160655 -0.082,0.2577466 -0.1015,0.052565 -0.221,0.040549 -0.2909,-0.029267 z m 1.9617,0 c -0.049,-0.048588 -0.061,-0.078239 -0.061,-0.1520523 0,-0.1339391 0.072,-0.2005693 0.2151,-0.2005693 0.1224,0 0.1812,0.033334 0.2187,0.1241417 0.037,0.091617 -0.01,0.2160655 -0.082,0.2577466 -0.1017,0.052565 -0.221,0.040549 -0.2909,-0.029267 z M 1.4864364,5.647162 c -0.042,-0.015604 -0.093,-0.041055 -0.1116,-0.056556 -0.065,-0.053494 -1.97900001,-2.312944 -2.01510001,-2.3781186 -0.021,-0.039417 -0.036,-0.109284 -0.036,-0.1760568 0,-0.068269 0.014,-0.1342518 0.036,-0.1721293 0.033,-0.053963 0.7425,-0.6748271 1.0572,-0.9234829 0.223,-0.1761652 0.5406,-0.2906651 0.80650001,-0.2906651 0.463,0 0.9392,0.314744 1.1856,0.7834576 0.097,0.1861542 0.1359,0.3443576 0.1359,0.5645332 0,0.2200022 -0.04,0.3899045 -0.1369,0.5737637 -0.099,0.1900227 -0.2267,0.324829 -0.6237,0.6620134 -0.1892,0.1607372 -0.3521,0.2992479 -0.3619,0.3078027 -0.01,0.00855 0.084,0.1349858 0.2089,0.2809581 0.286,0.3346941 0.3146,0.3812196 0.3147,0.5129778 2e-4,0.2280552 -0.241,0.3914348 -0.4596,0.3115022 z m -0.1204,-1.9272463 c 0.3227,-0.2742214 0.3776,-0.3297447 0.4285,-0.43363 0.078,-0.1591545 0.081,-0.3966876 0.01,-0.5473275 -0.1551,-0.320025 -0.5606,-0.4795916 -0.85890001,-0.3380547 -0.057,0.026944 -0.2632,0.1856028 -0.4589,0.3525689 l -0.3558,0.3035781 0.1874,0.2202373 c 0.1032,0.1211315 0.2911,0.3431313 0.4177,0.4933313 0.1267,0.1502035 0.2373,0.2710002 0.2457,0.2684388 0.01,-0.00257 0.18200001,-0.1461766 0.38550001,-0.3191422 z m 16.4327996,0.839662 c -0.6515,-0.089436 -1.0596,-0.5557896 -1.1291,-1.2905691 -0.054,-0.5660975 0.089,-1.0528934 0.3999,-1.3630626 0.273,-0.2725302 0.5646,-0.3726986 1.0316,-0.3542788 0.2974,0.01174 0.4469,0.049347 0.6532,0.1643335 0.2228,0.1243092 0.3097,0.2171122 0.3097,0.3311755 0,0.058468 -0.07,0.1391362 -0.1205,0.1391362 -0.02,0 -0.1242,-0.05827 -0.2315,-0.129488 -0.2356,-0.1562523 -0.3634,-0.2016316 -0.6082,-0.2158392 -0.5302,-0.030775 -0.8913,0.230976 -1.0317,0.7479836 -0.018,0.068141 -0.04,0.235399 -0.046,0.3716826 -0.03,0.6445287 0.1846,1.0799149 0.621,1.2570836 0.088,0.035889 0.1496,0.042678 0.3839,0.042583 0.3292,0 0.4211,-0.027987 0.6848,-0.2075911 0.2022,-0.137628 0.2462,-0.1504263 0.304,-0.088353 0.074,0.07981 0.059,0.1761161 -0.044,0.2748968 -0.2514,0.2408038 -0.7562,0.3781312 -1.1774,0.3203067 z m 2.2515,-0.038722 c -0.3149,-0.100651 -0.5319,-0.3485363 -0.6159,-0.703267 -0.038,-0.1588295 -0.034,-0.4982871 0.01,-0.6552922 0.1364,-0.5178252 0.5855,-0.8018341 1.121,-0.7087554 0.5154,0.089597 0.8275,0.5412474 0.7856,1.1369061 -0.034,0.4863901 -0.2598,0.8093019 -0.6495,0.9297023 -0.1746,0.053922 -0.4815,0.054257 -0.6489,7.196e-4 z m 0.6197,-0.3024785 c 0.1264,-0.061792 0.2071,-0.1598857 0.2765,-0.3358524 0.039,-0.098517 0.046,-0.1565093 0.046,-0.3746718 0,-0.2181622 -0.01,-0.276154 -0.046,-0.3746747 -0.067,-0.1690319 -0.1464,-0.2674288 -0.2734,-0.337717 -0.1013,-0.055948 -0.1299,-0.061947 -0.2979,-0.061947 -0.1677,0 -0.1966,0.00599 -0.2978,0.061947 -0.1902,0.1053163 -0.3025,0.3154593 -0.3252,0.6085529 -0.034,0.4504331 0.1449,0.7873201 0.4624,0.8672256 0.1267,0.031865 0.3307,0.00818 0.4554,-0.052863 z m 1.2408,0.3031103 -0.049,-0.03947 -0.01,-1.3903225 c -0.01,-0.9672672 0,-1.4068316 0.017,-1.4445852 0.044,-0.1056105 0.1959,-0.1330376 0.2787,-0.050233 l 0.051,0.050685 v 1.4060096 1.4060137 l -0.051,0.050682 c -0.063,0.062417 -0.1717,0.067501 -0.2413,0.011219 z m 0.9705,3.2e-6 -0.049,-0.03946 -0.01,-0.9584862 c -0.01,-0.9469328 -0.01,-0.9591488 0.037,-1.0136374 0.034,-0.044183 0.061,-0.055093 0.1296,-0.054839 0.1839,6.806e-4 0.1793,-0.027622 0.1793,1.0626905 v 0.9418286 l -0.051,0.050682 c -0.063,0.062415 -0.1717,0.067501 -0.2413,0.011222 z m 1.2773,0.00826 c -0.2519,-0.063468 -0.4692,-0.2145103 -0.4692,-0.3262752 0,-0.064518 0.057,-0.1380957 0.1057,-0.1380957 0.023,0 0.1397,0.048783 0.2604,0.1084073 l 0.2191,0.1084078 h 0.2184 c 0.1811,0 0.2353,-0.00773 0.3161,-0.045057 0.1132,-0.052321 0.1812,-0.1478494 0.1809,-0.254355 0,-0.1713798 -0.094,-0.2326051 -0.522,-0.3401174 -0.5363,-0.1348868 -0.6943,-0.2690612 -0.6954,-0.5901981 0,-0.3186715 0.2284,-0.5393735 0.6252,-0.6010512 0.2891,-0.04497 0.6247,0.039101 0.7907,0.198175 0.073,0.070675 0.091,0.1009115 0.091,0.1597802 0,0.072491 -0.05,0.1409607 -0.1014,0.1409607 -0.014,0 -0.1156,-0.048783 -0.2256,-0.1084075 l -0.1999,-0.1084075 h -0.2064 c -0.1711,0 -0.219,0.00727 -0.2787,0.042416 -0.2125,0.1248235 -0.2225,0.3901832 -0.019,0.4956296 0.033,0.017228 0.2006,0.068108 0.372,0.1130659 0.5462,0.1434014 0.6994,0.2712138 0.6994,0.5833528 0,0.1656064 -0.04,0.2621479 -0.1547,0.378147 -0.1559,0.1569245 -0.282,0.1990764 -0.6196,0.2072131 -0.186,0.00448 -0.3051,-0.00275 -0.3878,-0.02359 z m -14.0666,-0.266809 C 9.7997364,4.1943507 9.7278364,4.1547139 9.2222364,3.7830154 c -0.2058,-0.1513366 -0.3797,-0.2751597 -0.3865,-0.2751597 -0.01,0 -0.118,0.1422802 -0.2472,0.3161782 -0.2646,0.3563043 -0.3179,0.3976632 -0.4911,0.3810272 -0.1941,-0.018656 -0.3201,-0.1757903 -0.3033,-0.3783544 0.011,-0.1266134 -0.093,0.02472 1.0654,-1.5474698 0.5718,-0.775547 0.8128,-1.0866237 0.8676,-1.120103 0.056,-0.033551 0.1081,-0.046386 0.1925,-0.04646 0.1325996,0 0.078,-0.034455 0.8478996,0.5332191 0.2574,0.1898865 0.4772,0.3695053 0.5524,0.451641 0.2275,0.2482437 0.3479,0.5782608 0.3255,0.8919487 -0.021,0.3096766 -0.1755,0.6466255 -0.4101,0.9011011 -0.1221,0.1323904 -0.3672,0.2900831 -0.5299,0.3407556 -0.1784,0.055644 -0.4509,0.069684 -0.6134,0.031602 z m 0.4327,-0.7082106 c 0.1275,-0.040284 0.2854,-0.1839953 0.3574,-0.3252285 0.1084,-0.2129153 0.081,-0.5070619 -0.062,-0.681155 -0.059,-0.072044 -0.7457,-0.5997287 -0.8069,-0.6203479 -0.027,-0.00939 -0.7855996,1.0143347 -0.7697996,1.0399343 0.013,0.022951 0.7339,0.5489661 0.7941996,0.5804413 0.1216,0.063517 0.2986,0.065828 0.4869,0.00636 z M 5.0870364,3.7869553 c -0.7675,-0.1738605 -1.2859,-0.6827098 -1.4411,-1.4147977 -0.055,-0.2565292 -0.05,-0.7126273 0.01,-0.9560795 0.3112,-1.26605044 1.8561,-1.82541439 2.9925,-1.08350779 0.2776,0.18110239 0.5132,0.45417461 0.6472,0.74977389 0.2629,0.5795525 0.2273,1.3355707 -0.087,1.8609194 -0.092,0.1536288 -0.324,0.4007792 -0.4818,0.5133898 -0.1701,0.1213545 -0.4382,0.2473889 -0.6406,0.301128 -0.2177,0.057803 -0.7979,0.074746 -0.9991,0.029173 z m 0.6954,-0.6418248 c 0.3704,-0.075257 0.6931,-0.3091098 0.8559,-0.6204437 0.1124,-0.2147427 0.1463,-0.3827836 0.1328,-0.6584296 -0.017,-0.3483783 -0.1059,-0.5714065 -0.3164,-0.7945091 -0.2242,-0.23765081 -0.5053,-0.36637389 -0.8434,-0.38608229 -0.3793,-0.0221056 -0.6965,0.097641 -0.9622,0.36307829 -0.242,0.241885 -0.3481,0.5068576 -0.3488,0.8709951 0,0.6203879 0.3778,1.0944754 0.9805,1.2271724 0.1686,0.037128 0.3127,0.036617 0.5016,-0.00179 z M 22.841436,1.9401167 c -0.049,-0.048588 -0.06,-0.078239 -0.06,-0.1520523 0,-0.133939 0.072,-0.2005694 0.2151,-0.2005694 0.1223,0 0.1811,0.033334 0.2187,0.1241422 0.037,0.091617 -0.01,0.2160652 -0.082,0.2577433 -0.1017,0.052568 -0.2211,0.040554 -0.2909,-0.029263 z" id="path4561" inkscape:connector-curvature="0"></path></svg> 